Format : AVI
Format/Info : Audio Video Interleave
Format profile : OpenDML
File size : 2.81 GiB
Duration : 1h 40mn
Overall bit rate : 4 012 Kbps
Writing application : VirtualDubMod 1.5.10.3 | www.virtualdub-fr.org || (build 2550/release)
Writing library : VirtualDubMod build 2550/release

Video
ID : 0
Format : MPEG-4 Visual
Format profile : Advanced Simple@L5
Format settings, BVOP : Yes
Format settings, QPel : No
Format settings, GMC : No warppoints
Format settings, Matrix : Custom
Codec ID : XVID
Codec ID/Hint : XviD
Duration : 1h 40mn
Bit rate : 3 554 Kbps
Width : 1 280 pixels
Height : 536 pixels
Display aspect ratio : 2.35:1
Frame rate : 23.976 fps
Color space : YUV
Chroma subsampling : 4:2:0
Bit depth : 8 bits
Scan type : Progressive
Bits/(Pixel*Frame) : 0.216
Stream size : 2.49 GiB (89%)
Writing library : XviD 1.2.1 (UTC 2008-12-04)

Audio
ID : 1
Format : AC-3
Format/Info : Audio Coding 3
Mode extension : CM (complete main)
Codec ID : 2000
Duration : 1h 40mn
Bit rate mode : Constant
Bit rate : 448 Kbps
Channel(s) : 6 channels
Channel positions : Front: L C R, Side: L R, LFE
Sampling rate : 48.0 KHz
Bit depth : 16 bits
Stream size : 321 MiB (11%)
Alignment : Split accross interleaves
Interleave, duration : 42 ms (1.00 video frame)
Interleave, preload duration : 500 ms



 
http://www.imdb.com/title/tt1032751/




89524873606771859129.png


Users: 6.2/10 (1,748 votes) 43 reviews | Critics: 47 reviews Metascore: 45/100 (based on 11 reviews from Metacritic.com)

A warrior-assassin is forced to hide in a small town in the American Badlands after refusing a mission.
Director:
Sngmoo Lee
Writer:
Sngmoo Lee, and 1 more credit »
Stars:
Dong-gun Jang, Kate Bosworth and Geoffrey Rush


The Warriors Way 2010 720p BluRay X264-AMIABLE ............. Thanks

Dont do many 720s but here goes

And special thanks to DiLLoN from Flawl3ss on this one!




Greetz to Imagine ,Flawl3ss,DiLLoN,BDK,NOiR,TOXiCiNK,THC,Ez,Rx,